<?xml version="1.0" standalone="no"?>
<!DOCTYPE svg PUBLIC "-//W3C//DTD SVG 20010904//EN"
 "http://www.w3.org/TR/2001/REC-SVG-20010904/DTD/svg10.dtd">
<svg version="1.0" xmlns="http://www.w3.org/2000/svg"
 width="600.000000pt" height="600.000000pt" viewBox="0 0 600.000000 600.000000"
 preserveAspectRatio="xMidYMid meet">
<metadata>
Created by potrace 1.11, written by Peter Selinger 2001-2013
</metadata>
<g transform="translate(0.000000,600.000000) scale(0.100000,-0.100000)"
fill="#000000" stroke="none">
<path d="M0 3000 l0 -3000 3000 0 3000 0 0 3000 0 3000 -3000 0 -3000 0 0
-3000z m3192 2390 l33 -20 -82 0 c-88 0 -107 12 -45 28 54 14 58 14 94 -8z
m942 -6 c19 -18 19 -20 6 -45 -6 -10 -19 -19 -28 -19 -39 0 -57 50 -24 69 23
14 28 14 46 -5z m-1395 -80 c-11 -10 -28 -14 -50 -12 -34 4 -34 4 -9 15 14 7
36 12 50 12 22 1 23 0 9 -15z m231 -14 c19 -5 52 -10 72 -10 44 0 57 -15 27
-30 -16 -9 -24 -8 -38 4 -21 19 -170 23 -203 5 -26 -14 -88 -3 -88 16 0 8 7
15 15 15 8 0 15 5 15 11 0 14 142 6 200 -11z m547 -46 c-3 -3 -12 -4 -19 -1
-8 3 -5 6 6 6 11 1 17 -2 13 -5z m-166 -63 c-37 -39 -62 -40 -41 -2 11 21 41
39 66 40 6 1 -5 -16 -25 -38z m619 -1 c0 -5 -2 -10 -4 -10 -3 0 -8 5 -11 10
-3 6 -1 10 4 10 6 0 11 -4 11 -10z m40 -10 c0 -5 -4 -10 -10 -10 -5 0 -10 5
-10 10 0 6 5 10 10 10 6 0 10 -4 10 -10z m120 0 c0 -5 -4 -10 -10 -10 -5 0
-10 5 -10 10 0 6 5 10 10 10 6 0 10 -4 10 -10z m5 -41 l40 -41 -47 33 c-27 18
-48 36 -48 41 0 17 17 7 55 -33z m-1958 15 c-3 -3 -12 -4 -19 -1 -8 3 -5 6 6
6 11 1 17 -2 13 -5z m2248 -85 c-8 -12 -35 -12 -35 0 0 11 22 20 33 14 4 -2 5
-9 2 -14z m-105 -9 c0 -5 -11 -12 -25 -16 -14 -3 -25 -10 -25 -15 0 -5 -4 -9
-10 -9 -18 0 -10 15 18 32 31 20 42 22 42 8z m-1881 -11 c17 -6 31 -16 31 -23
0 -25 99 -113 195 -174 97 -61 211 -148 140 -107 -16 10 -45 29 -63 42 -17 13
-62 38 -100 55 -88 40 -220 126 -227 148 -3 9 -17 22 -30 28 -14 6 -25 18 -25
27 0 18 33 20 79 4z m1654 -110 c157 -58 167 -78 15 -30 -51 17 -123 35 -160
41 -38 7 -66 16 -63 20 9 15 130 -3 208 -31z m264 -117 c38 -20 63 -42 48 -42
-13 0 -122 59 -145 79 l-25 21 40 -18 c22 -10 59 -28 82 -40z m248 -171 c-11
-10 -65 -23 -65 -15 0 6 41 23 60 23 9 1 10 -2 5 -8z m-2920 -41 c3 -5 1 -10
-4 -10 -6 0 -11 5 -11 10 0 6 2 10 4 10 3 0 8 -4 11 -10z m444 -234 c25 -6 37
-13 30 -20 -2 -3 -72 0 -154 5 -83 6 -160 8 -172 6 -15 -3 -23 1 -23 10 0 13
22 14 148 9 81 -3 158 -8 171 -10z m266 -133 c14 -12 25 -30 25 -39 0 -11 -20
3 -60 42 -33 32 -60 62 -60 67 0 9 44 -24 95 -70z m547 -240 c44 -77 45 -82
13 -53 -30 28 -55 71 -55 95 0 25 6 18 42 -42z m-939 -14 c4 -14 -5 -29 -31
-52 -20 -18 -48 -45 -62 -62 -58 -68 -224 -218 -254 -229 -35 -13 -258 30
-257 49 0 6 18 11 38 13 21 2 52 9 70 17 17 8 48 15 69 15 21 0 69 12 107 26
56 22 76 36 120 86 28 34 60 68 70 77 10 9 37 35 59 58 43 44 60 45 71 2z
m1446 -55 c16 -21 21 -40 20 -88 l-1 -61 -13 43 c-8 24 -12 49 -9 56 3 7 -4
21 -16 31 -21 19 -27 45 -11 45 5 0 19 -12 30 -26z m251 -14 c0 -21 -24 -28
-35 -10 -8 14 3 30 21 30 8 0 14 -9 14 -20z m-1125 -99 c-31 -39 -72 -80 -91
-92 -19 -12 -58 -41 -86 -65 -29 -24 -83 -63 -122 -86 -39 -24 -83 -55 -99
-70 -19 -19 -38 -28 -60 -28 -32 0 -260 76 -317 105 -16 8 -38 15 -50 15 -27
0 -26 17 2 26 12 3 90 8 172 10 223 6 215 4 292 55 38 25 112 61 164 79 52 19
129 56 169 82 41 26 77 46 79 43 2 -2 -22 -35 -53 -74z m-1267 -109 c-3 -24
-7 -27 -38 -27 -46 -1 -76 12 -88 39 -9 20 -7 21 27 20 19 -1 47 4 61 11 30
16 43 1 38 -43z m2181 1 c1 -13 6 -23 11 -23 6 0 10 -4 10 -10 0 -5 -4 -10
-10 -10 -9 0 -30 64 -29 90 1 23 17 -20 18 -47z m-2436 18 c42 -13 77 -27 77
-30 0 -3 -45 -5 -100 -4 -125 3 -175 -16 -272 -106 -69 -63 -78 -70 -77 -48 2
36 219 185 274 188 11 0 14 3 8 6 -7 2 -13 9 -13 15 0 5 6 8 13 6 6 -2 47 -14
90 -27z m1802 -158 c-19 -45 -83 -164 -96 -177 -5 -5 -6 7 -3 30 l5 39 -35
-40 c-20 -22 -36 -46 -36 -54 0 -13 -10 -12 -55 4 -11 4 7 -18 40 -49 69 -65
97 -70 173 -32 26 13 64 29 84 35 31 10 49 29 99 101 l61 88 61 11 c34 7 78
19 98 27 33 14 39 14 68 -1 41 -21 48 -40 27 -76 -9 -16 -13 -29 -7 -29 12 0
133 117 149 145 10 17 11 13 12 -30 0 -38 3 -46 12 -37 7 7 27 12 46 12 19 0
62 4 96 10 182 29 210 31 226 12 8 -10 23 -21 33 -25 18 -7 20 -21 9 -48 -5
-12 -13 -14 -29 -8 -13 5 -23 13 -23 19 0 14 -101 6 -195 -15 -33 -7 -94 -18
-135 -25 -122 -18 -174 -46 -258 -135 -48 -51 -86 -80 -142 -108 -136 -69
-192 -102 -191 -112 1 -5 27 -19 57 -30 l55 -19 42 22 c23 12 71 29 107 38 49
13 79 29 120 64 80 69 89 72 198 70 53 -1 133 5 176 13 83 15 133 10 156 -18
20 -24 44 -18 141 31 50 25 93 44 94 42 3 -3 -25 -21 -160 -101 -11 -7 -33
-21 -49 -31 l-29 -19 45 -12 c25 -6 74 -9 109 -7 46 3 76 -1 104 -13 96 -41
203 -73 231 -67 64 12 241 131 272 183 20 34 26 38 43 29 11 -6 25 -20 32 -30
6 -11 20 -20 29 -20 23 0 31 -36 20 -87 -14 -61 -1 -183 19 -183 17 0 139 -55
139 -63 0 -12 -201 4 -290 25 -47 10 -99 19 -116 18 -24 0 -37 8 -62 38 -25
32 -39 40 -74 45 -46 6 -74 -7 -39 -18 11 -3 41 -31 67 -61 33 -38 57 -57 85
-64 43 -12 91 -49 115 -89 13 -23 28 -30 80 -40 68 -14 80 -25 39 -35 -14 -4
-25 -13 -25 -22 0 -11 5 -12 18 -6 27 15 72 23 72 14 0 -4 -40 -28 -90 -52
-85 -42 -117 -69 -67 -57 12 3 49 8 82 12 33 4 68 9 79 12 11 3 16 1 12 -5 -3
-6 -25 -13 -49 -17 -23 -4 -109 -34 -192 -66 -107 -43 -163 -71 -195 -98 -38
-33 -42 -41 -31 -54 15 -19 94 -37 161 -37 85 0 127 -35 137 -115 7 -57 -31
-141 -90 -205 -23 -25 -54 -58 -67 -73 l-25 -29 40 18 c22 10 64 35 94 55 58
41 227 220 242 257 7 18 15 22 36 19 50 -7 34 -47 -53 -134 -72 -73 -104 -121
-104 -158 0 -9 -20 -43 -45 -75 -25 -32 -45 -61 -45 -64 0 -12 52 -5 100 13
27 11 50 16 50 12 0 -16 -49 -53 -60 -46 -7 4 -50 -1 -96 -11 -70 -15 -82 -21
-69 -30 11 -8 12 -14 6 -19 -18 -10 -12 -25 7 -18 11 4 14 3 7 -4 -11 -11
-101 -47 -160 -63 -71 -20 -268 -40 -334 -34 -65 6 -161 44 -161 64 0 20 -42
9 -65 -16 l-24 -26 -78 67 c-121 104 -124 107 -199 191 -52 58 -83 83 -115 95
l-44 16 -5 82 c-3 46 -2 85 3 88 25 15 -32 53 -81 53 -21 0 -39 11 -65 40 -21
21 -37 42 -37 45 0 3 14 20 32 36 l31 31 -44 -7 c-41 -7 -109 -30 -109 -37 0
-2 7 -25 15 -51 10 -34 11 -55 5 -73 l-10 -26 -31 26 c-17 14 -37 26 -44 26
-8 0 -12 6 -9 14 7 19 -25 86 -41 86 -46 0 -124 -62 -154 -121 -14 -29 -170
-177 -239 -226 -44 -32 -138 -66 -170 -62 -24 3 -72 -12 -72 -22 0 -5 -6 -9
-12 -9 -31 -1 -38 -15 -26 -52 9 -31 19 -40 61 -57 27 -12 62 -21 78 -21 34 0
156 47 242 94 70 37 110 49 137 41 31 -10 54 -56 51 -103 -2 -37 1 -44 20 -49
19 -5 21 -11 15 -53 -4 -30 -1 -61 8 -87 8 -23 13 -43 11 -45 -2 -1 -13 -27
-25 -57 -18 -47 -19 -52 -4 -40 10 8 37 44 61 81 24 37 47 69 51 71 4 3 25 7
46 8 l39 4 4 -47 c3 -31 -1 -58 -13 -79 -9 -18 -20 -46 -25 -61 -7 -27 -6 -28
14 -23 12 4 39 18 60 31 21 14 42 22 46 19 5 -2 23 0 41 7 30 10 34 9 51 -13
24 -31 24 -44 -3 -71 -12 -12 -22 -33 -22 -47 -1 -24 -5 -26 -38 -24 -36 2
-38 1 -39 -30 0 -18 -3 -26 -6 -19 -2 6 -9 9 -14 6 -5 -3 -28 -3 -50 1 -33 6
-43 13 -56 41 -9 19 -24 34 -33 34 -19 0 -110 -86 -110 -104 0 -8 -6 -32 -14
-54 -8 -22 -17 -54 -19 -71 -3 -17 -19 -56 -36 -86 -33 -58 -32 -72 1 -30 26
33 64 33 70 0 3 -14 1 -25 -5 -25 -6 0 -8 -3 -5 -6 3 -3 23 2 44 11 37 15 37
15 19 -5 -10 -11 -34 -22 -54 -26 -20 -3 -43 -8 -51 -11 -8 -4 -17 -7 -20 -8
-61 -23 -71 -31 -103 -83 -48 -79 -72 -125 -69 -136 2 -5 -4 -6 -13 -2 -11 4
-19 -3 -27 -22 -6 -15 -22 -52 -36 -82 -13 -30 -30 -80 -36 -110 -11 -50 -15
-56 -46 -67 -57 -19 -196 -5 -247 24 -24 14 -45 28 -47 32 -5 7 12 189 35 379
11 92 11 104 -4 119 -15 15 -21 15 -85 -6 -79 -25 -158 -29 -193 -11 -35 19
-162 114 -178 134 -33 40 -65 47 -133 31 -35 -8 -101 -15 -148 -15 -77 0 -246
26 -295 46 -41 16 -131 78 -172 117 -51 49 -56 77 -15 77 22 0 39 15 87 75 33
41 66 88 74 104 8 18 31 37 60 51 33 15 51 31 60 53 35 89 58 106 154 115 47
4 71 12 103 36 46 33 49 43 35 94 -10 32 -9 32 25 32 37 0 94 24 94 40 0 5
-48 32 -106 61 -58 28 -120 62 -138 74 -40 27 -84 39 -99 26 -8 -6 -69 -6
-167 0 -85 5 -176 9 -203 9 -34 -1 -49 3 -53 14 -3 9 -12 16 -20 16 -8 0 -14
9 -14 19 0 11 -2 26 -5 33 -3 8 5 25 18 39 14 14 28 42 32 67 10 63 36 57 123
-27 39 -39 81 -75 93 -81 49 -27 156 -57 186 -53 l31 5 -36 59 c-34 53 -40 58
-72 59 -22 0 -50 -10 -73 -25 l-37 -26 -30 23 c-30 21 -39 59 -22 84 4 6 39
14 79 18 l72 6 23 -34 c21 -31 25 -33 43 -20 10 8 31 14 46 14 35 0 92 -67
115 -133 23 -67 39 -76 63 -36 11 18 40 45 65 60 30 19 44 34 40 43 -4 11 6
18 38 26 23 6 79 25 124 41 88 33 241 69 260 62 7 -2 44 5 84 17 39 12 85 20
103 18 l32 -3 -50 -26 c-53 -28 -163 -93 -310 -183 -49 -30 -102 -60 -117 -67
-32 -14 -34 -25 -13 -56 10 -14 34 -24 78 -33 l63 -12 60 35 c37 22 95 44 152
57 50 12 107 32 125 44 22 15 55 25 95 29 53 4 68 10 100 39 58 53 128 98 151
98 19 0 21 -6 22 -77 l0 -78 24 50 c13 28 31 75 40 105 9 30 20 64 25 75 23
50 38 113 33 137 -6 32 -1 35 76 41 l53 4 -6 -36 c-4 -20 -11 -70 -16 -111 -6
-41 -13 -91 -16 -110 -8 -44 4 -33 43 40 56 105 106 234 106 275 0 22 -1 86
-2 141 l-3 102 -106 79 c-204 151 -288 204 -492 311 -264 137 -286 159 -133
128 37 -7 120 -17 183 -20 l116 -7 80 78 c67 65 118 103 139 103 2 0 5 -10 7
-22 3 -23 3 -23 27 5 14 15 26 27 28 27 2 0 -4 -17 -12 -37z m1664 -62 c26
-36 26 -41 2 -41 -27 0 -76 44 -67 58 13 21 44 13 65 -17z m-3621 -69 c16 -21
15 -32 -2 -32 -8 0 -25 14 -37 31 l-22 31 24 -7 c13 -4 30 -14 37 -23z m-276
-46 c-16 -19 -32 -40 -35 -48 -8 -20 -49 30 -45 56 2 15 15 23 53 31 28 6 52
7 53 3 2 -5 -10 -24 -26 -42z m4551 -82 c23 -60 33 -236 19 -314 -15 -82 -43
-149 -85 -204 -20 -27 -35 -51 -33 -54 5 -5 67 36 77 51 4 5 12 8 19 5 7 -2
-6 -16 -29 -31 -23 -15 -39 -32 -36 -38 7 -11 -54 -39 -86 -39 -12 0 -54 -15
-93 -34 -39 -19 -84 -37 -101 -40 l-30 -6 35 20 c19 10 31 19 27 20 -4 0 -4 8
2 17 5 10 5 26 0 41 -8 21 -3 30 38 71 55 54 89 101 85 117 -1 7 6 11 15 10
12 -1 17 5 15 17 -2 10 4 53 12 95 8 42 20 110 26 149 20 142 30 172 58 188
37 20 44 15 65 -41z m-1033 26 c-8 -5 -19 -10 -25 -10 -5 0 -3 5 5 10 8 5 20
10 25 10 6 0 3 -5 -5 -10z m-1488 -181 c60 -30 88 -63 70 -81 -10 -10 -97 46
-172 111 l-35 31 40 -16 c22 -9 66 -29 97 -45z m-1049 0 c40 -12 92 -36 117
-53 63 -44 164 -70 240 -62 67 8 130 -7 156 -35 18 -19 24 -19 -171 -21 -55
-1 -125 22 -197 65 -70 42 -133 48 -247 25 -126 -26 -219 -16 -317 34 -37 18
-70 40 -72 47 -3 9 6 8 29 -5 58 -29 161 -30 259 0 105 31 115 31 203 5z
m-788 -88 c65 -26 26 -27 -45 -1 -30 11 -58 20 -62 20 -5 0 -8 -17 -8 -38 0
-21 -7 -47 -16 -58 -14 -17 -15 -14 -9 44 5 57 4 65 -17 83 -21 17 -16 17 42
-5 36 -14 88 -34 115 -45z m4626 47 c33 -37 2 -93 -58 -104 -49 -9 -59 6 -34
54 17 34 54 72 70 72 2 0 12 -10 22 -22z m-2958 -54 c3 -3 1 -12 -6 -19 -9 -9
-14 -9 -24 1 -7 7 -13 15 -13 18 0 8 35 8 43 0z m-826 -166 c29 -27 29 -54 1
-69 -13 -7 -47 -30 -76 -51 -29 -22 -67 -44 -85 -50 -18 -6 -43 -18 -57 -28
-27 -18 -77 -38 -158 -65 -61 -20 -90 -17 -222 20 -61 16 -133 28 -200 32 -98
5 -130 14 -130 33 0 15 232 3 284 -14 74 -24 139 -21 186 9 22 14 48 25 58 25
10 0 22 4 27 9 6 5 33 18 60 28 28 11 78 41 112 68 53 40 121 71 167 74 6 1
20 -9 33 -21z m3 -113 c-7 -8 -17 -15 -22 -15 -6 0 -33 -16 -60 -36 -27 -20
-51 -34 -54 -31 -8 7 137 108 145 101 2 -2 -2 -10 -9 -19z m203 -12 c18 -9 46
-16 64 -15 41 2 206 -76 258 -122 23 -20 44 -31 50 -26 5 4 25 11 44 15 30 6
33 5 27 -11 -15 -37 -18 -81 -7 -88 16 -10 14 -26 -4 -26 -8 0 -49 22 -92 48
-43 27 -134 80 -203 119 -122 69 -126 70 -182 65 -48 -4 -58 -2 -58 11 0 15
42 46 63 47 4 0 22 -7 40 -17z m-1213 -98 c14 -16 10 -18 -14 -9 -9 3 -16 10
-16 15 0 14 16 11 30 -6z m915 -65 c58 -13 97 -37 116 -72 7 -13 -7 -9 -58 16
-37 19 -85 41 -105 49 -21 9 -38 19 -38 23 0 3 6 4 13 1 6 -2 39 -10 72 -17z
m-605 5 c0 -4 -7 -19 -15 -35 -8 -16 -20 -52 -26 -79 -10 -49 -41 -101 -60
-101 -5 0 -27 11 -48 25 l-40 24 29 53 c20 35 45 64 77 85 43 29 83 42 83 28z
m-290 -9 c0 -3 -4 -8 -10 -11 -5 -3 -10 -1 -10 4 0 6 5 11 10 11 6 0 10 -2 10
-4z m2020 -166 c-12 -16 -24 -30 -26 -30 -3 0 4 14 16 30 12 17 24 30 26 30 3
0 -4 -13 -16 -30z m-1425 -310 c-3 -5 -16 -10 -28 -9 -21 0 -21 1 -2 9 28 12
37 12 30 0z m2229 -406 c8 -20 -11 -54 -29 -54 -18 0 -20 -19 -2 -21 6 -1 -13
-5 -42 -9 -30 -5 -73 -5 -95 -1 l-41 7 43 7 44 8 -26 33 c-14 18 -22 36 -19
40 4 3 41 6 84 6 61 0 78 -3 83 -16z m-214 -185 c0 -6 -4 -7 -10 -4 -5 3 -10
11 -10 16 0 6 5 7 10 4 6 -3 10 -11 10 -16z m-63 -379 c1 -15 -5 -20 -25 -21
-24 0 -25 -1 -7 -9 17 -6 14 -8 -15 -12 -31 -4 -29 -5 15 -7 l50 -3 -40 -8
c-22 -4 -62 -11 -89 -15 -46 -6 -49 -5 -36 10 10 13 15 13 21 3 8 -12 13 -4
10 14 0 4 6 5 14 2 11 -5 13 -2 9 10 -4 11 0 16 13 16 11 0 28 9 38 20 10 11
23 20 29 20 7 0 12 -9 13 -20z m223 -15 c0 -9 -76 -26 -135 -30 l-60 -4 74 14
c40 8 78 16 85 19 15 6 36 7 36 1z m-562 -467 c30 -30 -7 -95 -47 -80 -49 18
-38 92 14 92 12 0 26 -5 33 -12z"/>
<path d="M3430 3489 c0 -5 5 -7 10 -4 6 3 10 8 10 11 0 2 -4 4 -10 4 -5 0 -10
-5 -10 -11z"/>
<path d="M3808 3108 c-7 -7 -42 -14 -78 -16 -36 -2 -108 -11 -160 -22 -52 -10
-115 -22 -140 -25 -66 -11 -119 -41 -120 -67 0 -15 47 -8 66 11 11 10 36 21
55 24 19 3 82 15 142 28 104 22 109 22 162 5 48 -15 94 -52 107 -84 1 -5 34
-23 72 -38 75 -32 101 -57 76 -75 -11 -8 -9 -9 10 -4 33 9 85 59 121 114 34
52 35 60 12 59 -10 0 -70 23 -133 51 -116 51 -168 61 -192 39z"/>
<path d="M4550 2605 c-14 -8 -19 -14 -10 -14 8 0 24 6 34 14 25 19 9 19 -24 0z"/>
<path d="M4082 2324 c-16 -19 -35 -46 -42 -60 -12 -21 -11 -26 6 -39 28 -21
31 -19 43 32 7 25 19 55 27 67 34 48 6 49 -34 0z"/>
<path d="M1628 2108 c-36 -13 -35 -22 5 -46 39 -24 148 -36 140 -15 -3 7 -9
13 -15 13 -5 0 -14 14 -19 30 -10 26 -16 30 -47 29 -21 0 -49 -5 -64 -11z"/>
<path d="M1985 1760 c-11 -5 -35 -9 -52 -9 -18 -1 -33 -3 -33 -5 0 -24 55
-116 81 -136 18 -14 41 -30 49 -37 14 -10 25 -6 61 18 29 19 57 29 82 29 24 0
49 8 64 20 14 11 33 20 42 20 28 1 -37 50 -66 50 -14 0 -55 14 -90 30 -64 30
-101 36 -138 20z m176 -67 c36 -22 38 -43 3 -43 -27 0 -88 43 -77 54 11 11 45
6 74 -11z"/>
<path d="M2455 1295 c0 -69 4 -73 48 -56 19 7 27 20 32 51 8 47 -10 69 -55 70
-25 0 -26 -2 -25 -65z"/>
<path d="M2728 1273 c-18 -4 -24 -28 -32 -118 -5 -64 -26 -121 -77 -208 -40
-71 -47 -101 -11 -50 64 91 140 259 156 346 7 38 4 41 -36 30z"/>
</g>
</svg>
